PathFileType	4	(X/Y/Z)	pose2sim_150-449.trc
DataRate	CameraRate	NumFrames	NumMarkers	Units	OrigDataRate	OrigDataStartFrame	OrigNumFrames
50	50	6	22	m	50	187	300
Frame#	Time	Hip			RHip			RKnee			RAnkle			RBigToe			RSmallToe			RHeel			LHip			LKnee			LAnkle			LBigToe			LSmallToe			LHeel			Neck			Head			Nose			RShoulder			RElbow			RWrist			LShoulder			LElbow			LWrist			
		X1	Y1	Z1	X2	Y2	Z2	X3	Y3	Z3	X4	Y4	Z4	X5	Y5	Z5	X6	Y6	Z6	X7	Y7	Z7	X8	Y8	Z8	X9	Y9	Z9	X10	Y10	Z10	X11	Y11	Z11	X12	Y12	Z12	X13	Y13	Z13	X14	Y14	Z14	X15	Y15	Z15	X16	Y16	Z16	X17	Y17	Z17	X18	Y18	Z18	X19	Y19	Z19	X20	Y20	Z20	X21	Y21	Z21	X22	Y22	Z22	
187	3.74	0.1308921690647413	0.9782834855808283	-0.05527096704223148	0.02850869334054794	0.9683771079620048	-0.04788993525724883	0.012291236345075443	0.5228008225847096	-0.07373274292930537	0.0028368636058290868	0.09586468937501728	-0.08624301491735377	0.013263211757941196	0.03993523870126923	0.07594314929842644	-0.037432768311935115	0.042499171837894784	0.03886291265683839	0.01208866559710784	0.0505660392096715	-0.12540182973005884	0.23411264669539383	0.9637508835791865	-0.07131458281993944	0.23965804126404833	0.5258450882320925	-0.11463226430680548	0.24439170234253976	0.09338556996328018	-0.11094444965459997	0.2795189726902935	0.040823044825482685	0.06791651530786691	0.3218535348030646	0.042251487823478026	0.014097266163018386	0.23233342235189436	0.04861254434164449	-0.14425432696175594	0.14504828937858313	1.5804090467343566	-0.08239261174556183	0.1479224309389786	1.826846316426402	-0.03752640407327413	0.15148013486049905	1.6939550311669131	0.08081995514286947	-0.013691542061562962	1.493466821763368	-0.07326420399996811	-0.05895183135114469	1.307233082387146	0.1393442539601941	-0.00584408986109671	1.512795276161416	0.31456064959822605	0.30023679622258137	1.4878290610162923	-0.10655289235079742	0.3613727269347473	1.2884341571045441	0.07153452350923524	0.3557861780698493	1.467412872855205	0.18946099832224136
188	3.76	0.13173785979334438	0.9781551364355922	-0.05423519280338731	0.030981139631871837	0.9669418736368481	-0.04881484389554545	0.01214722189487988	0.5230323517845994	-0.07585748991928089	0.0038597049307359317	0.0964952043835891	-0.09090832671568597	0.007519081946253593	0.039152802493822685	0.07693949752714474	-0.041809848169770625	0.04150831768991365	0.03375797049233214	0.01317801875711971	0.051204773431375	-0.12736979821381517	0.23806383848667098	0.9622230168464205	-0.07083990508692539	0.2424377842110864	0.525841022790722	-0.11610543586153754	0.24460596617880026	0.09375461723969035	-0.10985923949133533	0.28072714756559725	0.04296699807388433	0.08251458712906515	0.3197878680602	0.04451781725277053	0.027281741726274438	0.23339618881137084	0.049387602494096544	-0.15049173578133862	0.14447455100318696	1.57738838782688	-0.08443010466595181	0.147787905971477	1.824795196142111	-0.03367806307686232	0.15089354167300803	1.6912669254055015	0.08659016539426147	-0.012801494955676665	1.4878023473271347	-0.07782815818578326	-0.06480623969565377	1.3013801237602454	0.12968027634998	-0.017225027470284853	1.5071956876411086	0.3192982059487886	0.3039347978459525	1.48629857724849	-0.11230979996721935	0.3657215577114471	1.2938803484637156	0.07141895634501853	0.3649346425791867	1.469621425462749	0.19494171908181177
189	3.78	0.12929375593083642	0.9783081204823716	-0.056866399281219386	0.030113356657307078	0.9684087119080811	-0.04894642805618619	0.00970509909745406	0.5209626181300209	-0.0789910764823177	0.0023339880383760423	0.09373226371825127	-0.08413884742401548	0.011137473256255333	0.03801909221388576	0.07719674340650656	-0.03882933364531884	0.04071757597624446	0.03219023702293276	0.012858867533236628	0.048218841727273386	-0.12303793345285755	0.23849603448156623	0.9634666480742469	-0.07135653243834882	0.24161892192614423	0.5225198996511203	-0.1144169481313809	0.24326698628805465	0.09411422059439994	-0.11067671317754334	0.27831552596005865	0.040550164207812496	0.08462102089093286	0.3193375218090236	0.04123762098128547	0.02738635665035391	0.2336478098251924	0.04705395893927609	-0.14935689342114364	0.14458469798043846	1.5788253269643728	-0.0921330779407623	0.14756412204133615	1.8243946644384976	-0.04114885315353611	0.15401114289273407	1.6922437927098486	0.08295380430196278	-0.012004725587468073	1.4936536388813717	-0.07882219057692975	-0.05700517250881166	1.3144191226295732	0.14207843171381646	-0.09166611662180825	1.490650500258988	0.19726585412608663	0.30214815323695343	1.486760581893863	-0.12239570875195416	0.36765906687692773	1.2849863899252925	0.05585218672943264	0.37799099368357375	1.4581166762656672	0.19671198140985036
190	3.8	0.13435586601843133	0.9856720425090341	-0.05196037645108106	0.033430859394762494	0.9730660219138502	-0.04674951046441312	0.012229055285466011	0.5224559577681454	-0.07951900767220434	0.002638033117195881	0.09091910041106331	-0.08690538599543941	0.005982521789359685	0.036017219243172215	0.09665580556489355	-0.03995112730545925	0.03942287703557389	0.05585850475042441	0.01014089205089152	0.04260983792520003	-0.12824494461752856	0.23751164485395884	0.9691026869134465	-0.06832206120847022	0.23946286730447627	0.5242003366396303	-0.1118222418655995	0.2454624528395419	0.0889935679878265	-0.10924182246091997	0.28185233223739464	0.036169708657713066	0.0874019405583237	0.3151476489934704	0.03336693236157942	0.02666993454125328	0.22797205901699066	0.04342630274415002	-0.14683846399595948	0.14725304007759435	1.5804793325385398	-0.09264805304744791	0.14888303415910945	1.822726337720934	-0.056637651918281295	0.15412254236359865	1.6959071319488401	0.05703793144012321	-0.011095615327364397	1.4885388204630965	-0.07857717153096895	-0.06517778132180319	1.280151398399453	0.12583936794879835	-0.055893175021878655	1.499276276320292	0.27325090167210325	0.3055287968880028	1.483809350870026	-0.11694317467949707	0.36909655670384717	1.2706179454112523	0.059864594082325084	0.38881404179073903	1.471215661718655	0.21532559100910006
191	3.82	0.13255674535328246	0.9804308057516974	-0.053126902300261875	0.029479383550342627	0.9684362387224962	-0.051588049487145134	0.009607923931717607	0.5215811131357061	-0.07583482879915987	0.0020016450864971595	0.09371848309507765	-0.08577452654543852	0.014832780831193533	0.0368799424592042	0.0730943799261779	-0.03725560954345864	0.039475932457166026	0.03949972088135173	0.008171784738710499	0.04846698747491655	-0.1248665582046331	0.23689972797740966	0.9619214552890917	-0.07376086863146673	0.24172169117190498	0.5221013065359743	-0.11264385100214515	0.24524896452035005	0.0897293896503113	-0.1067534337174447	0.2807207079169799	0.0395345601893836	0.08541707666725862	0.31869307896429505	0.039938869026391384	0.027390798488313255	0.2307026371669079	0.04553162337379941	-0.14706498312354818	0.14808323039042484	1.5797807859783868	-0.09001909633746948	0.14904966659326138	1.824428710982615	-0.04948955944129437	0.15840631643455577	1.6925002568893728	0.08996027360753171	-0.010231490195027787	1.4918700132817528	-0.08051270212220421	-0.0673612618805348	1.3018748301602188	0.13415334295831188	-0.04524066652333813	1.4967622932087628	0.31991572514881145	0.30229387270187785	1.4846639379024305	-0.126096792313079	0.3740363978223295	1.2886415991953355	0.05185087186361948	0.38986105143948935	1.458999576562271	0.22229469333006086
192	3.84	0.1309283197300865	0.980745312449658	-0.05515556267365937	0.02852526661205928	0.9687443667415789	-0.05358931450771238	0.009934766207445265	0.5256229652759125	-0.07522040624612175	0.0025401966953309905	0.09544773279894901	-0.08146258939916053	0.020682248775115392	0.03679310266799058	0.07743512402138103	-0.034247598910264805	0.038047987164806604	0.040576548028002854	0.010294219401935324	0.04881586287588552	-0.11706483359764548	0.2366487257222623	0.9624596255294567	-0.08005621277765736	0.2412240554709799	0.5247644479575159	-0.11620661281992985	0.24548872418890172	0.09457475823450746	-0.106954865623864	0.28149436876270706	0.03676657276127734	0.08575663657347019	0.3220175831228722	0.0388502957601774	0.020621561379730792	0.23125941746927908	0.04915448809951064	-0.14520732880927947	0.14381867818543662	1.5810676857268458	-0.09297522030327315	0.1446321234624905	1.8254935303182982	-0.05225524908576934	0.15981915358169452	1.6968172567901507	0.08010564770030228	-0.009821453797115551	1.4901940686687147	-0.07947005667559916	-0.06745101745809151	1.2915382906154707	0.12178835899778803	-0.05922133494803381	1.490708446606655	0.31663146702369876	0.30403578236721085	1.4860108590257697	-0.12325612457083	0.3775674624674813	1.287876200233519	0.04090348710533809	0.4035856891960308	1.4554246777717919	0.2150413736672758
